<mxfile host="65bd71144e">
    <diagram id="0Xdu4I6r2NnTC5utK08y" name="PÃ¡gina-1">
        <mxGraphModel dx="821" dy="484" grid="0" gridSize="10" guides="1" tooltips="1" connect="1" arrows="1" fold="1" page="1" pageScale="1" pageWidth="827" pageHeight="1169" background="#4D4D4D" math="0" shadow="0">
            <root>
                <mxCell id="0"/>
                <mxCell id="1" parent="0"/>
                <mxCell id="2" value="&lt;div&gt;&lt;div&gt;&lt;br&gt;&lt;/div&gt;&lt;ul&gt;&lt;li&gt;Autocomplete search&lt;/li&gt;&lt;li&gt;Show Weather data of a selected location&lt;/li&gt;&lt;li&gt;If theres no selected location, search by ip, if its fail, show error message&lt;/li&gt;&lt;li&gt;Show resume weather data for the next 3 days&lt;/li&gt;&lt;li&gt;Celsius and Fahrenheit units to choose&lt;/li&gt;&lt;li&gt;when data is loading show a loading component&lt;/li&gt;&lt;/ul&gt;&lt;/div&gt;&lt;div&gt;&lt;br&gt;&lt;/div&gt;" style="whiteSpace=wrap;html=1;align=left;verticalAlign=middle;fillColor=#1A1A1A;fontColor=#ffffff;strokeColor=#314354;" parent="1" vertex="1">
                    <mxGeometry x="10" y="60" width="790" height="161" as="geometry"/>
                </mxCell>
                <mxCell id="3" value="Features" style="whiteSpace=wrap;html=1;fontSize=33;fillColor=#1A1A1A;fontColor=#FFFFFF;" parent="1" vertex="1">
                    <mxGeometry x="10" y="20" width="790" height="40" as="geometry"/>
                </mxCell>
                <mxCell id="5" style="edgeStyle=none;html=1;fontSize=33;entryX=0;entryY=0.5;entryDx=0;entryDy=0;" parent="1" source="4" target="7" edge="1">
                    <mxGeometry relative="1" as="geometry">
                        <mxPoint x="420" y="540" as="targetPoint"/>
                    </mxGeometry>
                </mxCell>
                <mxCell id="4" value="SearchLocation Component" style="rounded=0;whiteSpace=wrap;html=1;fillColor=#f5f5f5;strokeColor=#666666;fontColor=#333333;" parent="1" vertex="1">
                    <mxGeometry x="20" y="520" width="240" height="40" as="geometry"/>
                </mxCell>
                <mxCell id="6" value="Components responsability" style="whiteSpace=wrap;html=1;fontSize=33;" parent="1" vertex="1">
                    <mxGeometry x="10" y="240" width="790" height="40" as="geometry"/>
                </mxCell>
                <mxCell id="7" value="&lt;ul style=&quot;font-size: 14px&quot;&gt;&lt;li&gt;Receives user entries&amp;nbsp;&lt;/li&gt;&lt;li&gt;Call search method (from apiHelper) with the entry and show a list of matched cities for user choose&lt;/li&gt;&lt;li&gt;After user choose a city, send the city info for App component to make the weather data request&lt;/li&gt;&lt;/ul&gt;" style="whiteSpace=wrap;html=1;fontSize=33;align=left;" parent="1" vertex="1">
                    <mxGeometry x="390" y="475" width="370" height="130" as="geometry"/>
                </mxCell>
                <mxCell id="23" style="edgeStyle=none;html=1;entryX=0;entryY=0.5;entryDx=0;entryDy=0;" parent="1" source="9" target="13" edge="1">
                    <mxGeometry relative="1" as="geometry"/>
                </mxCell>
                <mxCell id="28" style="edgeStyle=none;html=1;entryX=0.5;entryY=0;entryDx=0;entryDy=0;" parent="1" target="29" edge="1">
                    <mxGeometry relative="1" as="geometry">
                        <mxPoint x="134" y="892" as="targetPoint"/>
                        <mxPoint x="141" y="848" as="sourcePoint"/>
                        <Array as="points">
                            <mxPoint x="141" y="884"/>
                            <mxPoint x="71" y="884"/>
                        </Array>
                    </mxGeometry>
                </mxCell>
                <mxCell id="31" style="edgeStyle=none;html=1;exitX=0.529;exitY=1.013;exitDx=0;exitDy=0;exitPerimeter=0;entryX=0.446;entryY=0.013;entryDx=0;entryDy=0;entryPerimeter=0;" parent="1" source="9" target="30" edge="1">
                    <mxGeometry relative="1" as="geometry">
                        <Array as="points">
                            <mxPoint x="141" y="885"/>
                            <mxPoint x="195" y="885"/>
                        </Array>
                    </mxGeometry>
                </mxCell>
                <mxCell id="9" value="weatherCard" style="rounded=0;whiteSpace=wrap;html=1;fillColor=#6a00ff;fontColor=#ffffff;strokeColor=#3700CC;" parent="1" vertex="1">
                    <mxGeometry x="13" y="766" width="242" height="76" as="geometry"/>
                </mxCell>
                <mxCell id="13" value="&lt;ul style=&quot;font-size: 14px&quot;&gt;&lt;li&gt;Receives data from parent component and show&lt;/li&gt;&lt;/ul&gt;" style="whiteSpace=wrap;html=1;fontSize=33;align=left;" parent="1" vertex="1">
                    <mxGeometry x="362" y="776" width="370" height="60" as="geometry"/>
                </mxCell>
                <mxCell id="21" style="edgeStyle=none;html=1;fontSize=14;" parent="1" source="20" edge="1">
                    <mxGeometry relative="1" as="geometry">
                        <mxPoint x="388.20001220703125" y="362.5" as="targetPoint"/>
                    </mxGeometry>
                </mxCell>
                <mxCell id="20" value="App" style="rounded=0;whiteSpace=wrap;html=1;spacingBottom=0;fillColor=#647687;strokeColor=#314354;fontColor=#ffffff;" parent="1" vertex="1">
                    <mxGeometry x="23" y="317" width="280" height="91" as="geometry"/>
                </mxCell>
                <mxCell id="22" value="&lt;ul style=&quot;font-size: 14px&quot;&gt;&lt;li&gt;when open, make a request for weather data by the user location based on ip&lt;/li&gt;&lt;li&gt;if user choose a new city, get selected city data&lt;/li&gt;&lt;li&gt;after each request, send the data for child components to show&amp;nbsp;&lt;/li&gt;&lt;/ul&gt;" style="whiteSpace=wrap;html=1;fontSize=33;align=left;" parent="1" vertex="1">
                    <mxGeometry x="390" y="305" width="370" height="145" as="geometry"/>
                </mxCell>
                <mxCell id="25" style="edgeStyle=none;html=1;" parent="1" source="24" edge="1">
                    <mxGeometry relative="1" as="geometry">
                        <mxPoint x="401.00006103515625" y="672.5" as="targetPoint"/>
                    </mxGeometry>
                </mxCell>
                <mxCell id="24" value="Switch" style="rounded=0;whiteSpace=wrap;html=1;fillColor=#000000;labelBackgroundColor=none;fontColor=#FFFFFF;" parent="1" vertex="1">
                    <mxGeometry x="18" y="653" width="242" height="39" as="geometry"/>
                </mxCell>
                <mxCell id="26" value="Able user to select beetwen celsius and fahrenheit units" style="whiteSpace=wrap;html=1;" parent="1" vertex="1">
                    <mxGeometry x="403" y="642.5" width="265" height="60" as="geometry"/>
                </mxCell>
                <mxCell id="29" value="weatherCard&lt;br&gt;current day info" style="rounded=0;whiteSpace=wrap;html=1;fillColor=#6a00ff;fontColor=#ffffff;strokeColor=#3700CC;" parent="1" vertex="1">
                    <mxGeometry x="10" y="907" width="122" height="45" as="geometry"/>
                </mxCell>
                <mxCell id="30" value="weatherCard&lt;br&gt;future info" style="rounded=0;whiteSpace=wrap;html=1;fillColor=#6a00ff;fontColor=#ffffff;strokeColor=#3700CC;" parent="1" vertex="1">
                    <mxGeometry x="141" y="907" width="122" height="45" as="geometry"/>
                </mxCell>
            </root>
        </mxGraphModel>
    </diagram>
</mxfile>